Coordinates
version=1
nRows=24
nColumns=24
inDegrees=yes

Units are S.I. units (second, meters, Newtons, ...)
Angles are in degrees.

endheader
time	pelvis_tilt	pelvis_list	pelvis_rotation	pelvis_tx	pelvis_ty	pelvis_tz	hip_flexion_r	hip_adduction_r	hip_rotation_r	knee_angle_r	ankle_angle_r	subtalar_angle_r	mtp_angle_r	hip_flexion_l	hip_adduction_l	hip_rotation_l	knee_angle_l	ankle_angle_l	subtalar_angle_l	mtp_angle_l	lumbar_extension	lumbar_bending	lumbar_rotation
      5.27500000	     -8.13618649	     -2.90201526	     12.92489673	     -1.07479727	     -0.02612566	     -0.30300744	     31.67525042	     -3.09641992	     -9.80017634	     -8.92986836	     -1.61513718	      5.26037860	     11.34685709	     -6.46086056	     -2.82873218	     18.84394469	    -18.75458170	      3.06665015	      4.84706066	     19.84018845	      4.46934081	      0.26109570	    -12.38416038
      5.28000000	     -8.20545026	     -3.15231450	     13.03175637	     -1.06707629	     -0.02694870	     -0.30246055	     31.70938732	     -2.88379555	    -10.27760366	     -9.55295665	     -2.14234142	      5.22093486	     11.65606344	     -6.46640380	     -3.25082483	     18.49088845	    -19.28907319	      2.65617502	      5.69620784	     20.22214790	      4.87624098	      0.49562286	    -12.50034539
      5.28500000	     -8.30096828	     -3.32597907	     13.03436018	     -1.05951942	     -0.02778562	     -0.30166201	     31.83767897	     -2.69740086	    -10.60598328	    -10.26158502	     -2.78426889	      5.16077254	     12.26252505	     -6.39949139	     -3.60390508	     17.84596420	    -19.88301294	      2.14741607	      6.81035188	     21.04046242	      5.25391125	      0.64090503	    -12.45586695
      5.29000000	     -8.43351676	     -3.47200816	     12.99434568	     -1.05198518	     -0.02853864	     -0.30083072	     31.98979936	     -2.50828700	    -10.67290185	    -10.85092936	     -4.13149834	      4.53961048	     14.18465055	     -6.32467146	     -3.91273776	     17.27664334	    -20.32578317	      0.96381846	      7.35364196	     23.18584424	      5.65798610	      0.75584094	    -12.39365961
      5.29500000	     -8.48524403	     -3.75289071	     12.97520067	     -1.04444558	     -0.02913561	     -0.30004824	     32.12086200	     -2.19892798	    -10.97369885	    -11.61338453	     -4.74679933	      4.50330612	     14.50602435	     -6.21892121	     -4.38217916	     16.64641886	    -21.02396538	      0.38073345	      8.53305072	     23.73965984	      6.01268477	      1.04044514	    -12.29922895
      5.30000000	     -8.63407235	     -4.04618869	     12.85398499	     -1.03698220	     -0.02972932	     -0.29910787	     32.37205381	     -1.80492778	    -10.78392001	    -12.32836820	     -5.84647486	      3.86462127	     15.30813333	     -5.98561877	     -4.84445323	     15.86414009	    -21.67257633	     -0.70814996	      9.38174286	     25.45584054	      6.45429879	      1.33210881	    -12.17096927
      5.30500000	     -8.71317581	     -4.37184713	     12.72125322	     -1.02961085	     -0.03014887	     -0.29816748	     32.60236304	     -1.36426366	    -10.67015773	    -13.15877062	     -6.62129061	      3.54801259	     15.65310175	     -5.76078109	     -5.36136993	     15.03920752	    -22.43601659	     -1.68546260	     10.48977570	     26.70374736	      6.80931961	      1.68287142	    -12.03431570
      5.31000000	     -8.78748366	     -4.69323426	     12.57254518	     -1.02218091	     -0.03045246	     -0.29717147	     32.83343141	     -0.89063905	    -10.38438322	    -14.03879089	     -7.17822875	      3.21616661	     15.73098544	     -5.49839044	     -5.89143911	     14.12827500	    -23.26948680	     -2.74615013	     11.73628822	     27.70752134	      7.17248271	      2.02429284	    -11.85498190
      5.31500000	     -8.89722332	     -5.07282903	     12.33152395	     -1.01478080	     -0.03068208	     -0.29611149	     33.13051224	     -0.28676896	     -9.85166206	    -14.93843361	     -7.86293056	      2.63731910	     15.56852323	     -5.18562794	     -6.46574145	     13.19661983	    -24.07020326	     -4.15665301	     12.65125615	     29.35737842	      7.57062783	      2.45091829	    -11.60547554
      5.32000000	     -8.95728199	     -5.41190943	     12.12284283	     -1.00748303	     -0.03078720	     -0.29505269	     33.37982221	      0.28934295	     -9.24502910	    -15.89453154	     -8.28710062	      2.18429523	     15.26713382	     -4.84727854	     -7.02656359	     12.23774706	    -25.01138594	     -5.52309794	     13.82996157	     30.56110043	      7.88561446	      2.83519947	    -11.42802572
      5.32500000	     -9.00837563	     -5.73713420	     11.86966379	     -1.00015721	     -0.03079907	     -0.29394840	     33.61491311	      0.90763197	     -8.52574502	    -16.86416611	     -8.60419936	      1.65764058	     14.74246378	     -4.50760447	     -7.57796831	     11.27546781	    -25.96587109	     -7.09232856	     14.89039470	     31.80727175	      8.18566383	      3.21742268	    -11.18942322
      5.33000000	     -9.02983542	     -6.04645994	     11.61011687	     -0.99282764	     -0.03071619	     -0.29285042	     33.80070793	      1.54190554	     -7.77717096	    -17.82997750	     -8.77316341	      1.12570005	     14.01579008	     -4.17303357	     -8.12094941	     10.34838607	    -26.95410935	     -8.82656691	     15.83870431	     33.02870036	      8.44682059	      3.59410667	    -10.95066329
      5.33500000	     -9.02314178	     -6.32445229	     11.35698745	     -0.98549016	     -0.03055805	     -0.29177640	     33.92497987	      2.16630038	     -7.02063723	    -18.77348849	     -8.79492396	      0.59496865	     13.19455646	     -3.84097455	     -8.63601813	      9.48323943	    -27.99037294	    -10.65988120	     16.71046226	     34.04941431	      8.66822436	      3.94469636	    -10.72748488
      5.34000000	     -8.98694656	     -6.56550735	     11.11300716	     -0.97817324	     -0.03033648	     -0.29073888	     33.97635955	      2.76772230	     -6.28728446	    -19.66963095	     -8.69986716	      0.07076755	     12.34915944	     -3.51184136	     -9.11256498	      8.69175352	    -29.07616923	    -12.56466048	     17.47803622	     34.84033453	      8.84301860	      4.26259068	    -10.51264811
      5.34500000	     -8.91469085	     -6.82007083	     10.91412153	     -0.97080627	     -0.03003957	     -0.28982403	     33.94021910	      3.36361843	     -5.71490703	    -20.50897440	     -8.37694810	     -0.37381854	     11.16551165	     -3.18714086	     -9.59604042	      8.00926610	    -30.17593968	    -14.64710772	     17.91658514	     35.66249947	      8.99708441	      4.60181678	    -10.34831018
      5.35000000	     -8.84681941	     -6.98320121	     10.67129800	     -0.96351835	     -0.02978149	     -0.28885447	     33.85431321	      3.89986847	     -5.06369079	    -21.25466879	     -8.17007675	     -0.87654704	     10.76325504	     -2.83486896	     -9.96967394	      7.37193577	    -31.39501934	    -16.50566700	     18.46454252	     35.64204343	      9.11356443	      4.85240358	    -10.12970813
      5.35500000	     -8.76441051	     -7.14089357	     10.49116625	     -0.95640921	     -0.02948131	     -0.28797639	     33.70267003	      4.40615064	     -4.47946615	    -21.90566570	     -7.95514401	     -1.46376156	     10.19511922	     -2.41721402	    -10.32074557	      6.85622653	    -32.68529784	    -18.44135143	     18.69043527	     35.64470574	      9.18565746	      5.09271169	     -9.99823724
      5.36000000	     -8.66572577	     -7.32095620	     10.36388330	     -0.94928258	     -0.02914309	     -0.28728752	     33.46611248	      4.87574983	     -4.11903869	    -22.42814675	     -7.67660800	     -1.88565301	      9.98557169	     -1.96884084	    -10.66383816	      6.48398162	    -34.02655380	    -20.34722576	     18.61540807	     35.31389490	      9.25907393	      5.36819194	     -9.90366768
      5.36500000	     -8.58114976	     -7.46061405	     10.22739441	     -0.94229935	     -0.02884836	     -0.28649635	     33.19699910	      5.32597758	     -3.71541100	    -22.86601025	     -7.37049863	     -2.39816398	      9.79380304	     -1.45690336	    -10.95798802	      6.12974189	    -35.42608061	    -22.20339043	     18.40298813	     34.91985785	      9.31056772	      5.58525593	     -9.80470752
      5.37000000	     -8.48886964	     -7.62831277	     10.13045339	     -0.93537056	     -0.02858523	     -0.28575781	     32.86553016	      5.77240004	     -3.42933648	    -23.19266096	     -6.98612380	     -2.84889648	      9.76843194	     -0.88619887	    -11.27555419	      5.81683316	    -36.89049221	    -23.96708486	     17.98570912	     34.42618877	      9.35678699	      5.81788141	     -9.76600388
      5.37500000	     -8.41952401	     -7.78417149	     10.02269402	     -0.92859744	     -0.02831126	     -0.28501063	     32.51435726	      6.20449678	     -3.14783311	    -23.42454321	     -6.64041493	     -3.30247392	      9.76982973	     -0.24445346	    -11.55139097	      5.56032573	    -38.39328730	    -25.70590393	     17.35695424	     33.84888507	      9.39782964	      6.04850629	     -9.68895347
      5.38000000	     -8.40950127	     -7.89299164	      9.88156627	     -0.92201431	     -0.02807023	     -0.28416916	     32.19633550	      6.59721410	     -2.83194131	    -23.59816546	     -6.32934540	     -3.78489399	      9.81850081	      0.50025958	    -11.74273756	      5.33374304	    -39.93735660	    -27.39186477	     16.52903277	     33.14700858	      9.45458322	      6.21317038	     -9.55443198
      5.38500000	     -8.36435251	     -8.08530221	      9.79805524	     -0.91553287	     -0.02780858	     -0.28344051	     31.80680383	      7.02291221	     -2.68270596	    -23.66552320	     -5.99829143	     -4.14861870	      9.98443186	      1.29322911	    -12.02075850	      5.15379065	    -41.53874801	    -28.95056643	     15.56910066	     32.44107703	      9.48046162	      6.47119777	     -9.48268337
      5.39000000	     -8.34723381	     -8.26110594	      9.71199481	     -0.90917047	     -0.02754409	     -0.28267925	     31.41702607	      7.42337508	     -2.54475968	    -23.67104141	     -5.67957147	     -4.50350036	     10.24455060	      2.15478765	    -12.25895708	      5.00821642	    -43.15648690	    -30.41820322	     14.50317882	     31.65947973	      9.51520041	      6.69944461	     -9.40087701
